<?xml version="1.0" encoding="utf-8"?>
<!-- Generator: Adobe Illustrator 27.4.0, SVG Export Plug-In . SVG Version: 6.00 Build 0)  -->
<svg version="1.1" id="Layer_1" xmlns="http://www.w3.org/2000/svg" xmlns:xlink="http://www.w3.org/1999/xlink" x="0px" y="0px"
	 viewBox="0 0 851.5 359.5" style="enable-background:new 0 0 851.5 359.5;" xml:space="preserve">
<style type="text/css">
	.st0{fill:#FFFFFF;}
</style>
<g>
	<g>
		<path class="st0" d="M121.7,255.7h-0.8c-2.1-0.8-3.1-2-3.1-3.7v-0.8c2.3-11.5,7.4-28.9,15.2-52.5c-11.7,1.4-24.2,2.7-37.3,3.8
			s-25.1,1.6-35.8,1.6c-5.4,0-10.2-0.2-14.5-0.6c-6-0.5-10.5-1.5-13.5-3.1c-2.8-1.5-4.2-3.5-4.2-5.8v-1c0.4-2.7,3.5-6.2,9.5-10.4
			c8.9-5.9,20.6-10.9,35-14.9c14.5-4,30.4-7,47.8-9.1c9.4-1.2,18.7-2.1,28-2.7c10.2-26.5,21-51.6,32.6-75.3
			c9.9-19.7,19.6-35.1,28.9-46.1c7.2-8.2,14-12.7,20.5-13.3h1c6.2,0,10.4,4.8,12.6,14.5c1.5,6.3,2.3,14.3,2.3,23.9
			c0,14.4-1.5,31.4-4.4,51c-2.2,15.6-5,31-8.3,46.3c6.1,0.8,11.4,1.7,16.2,2.7c2.1,0.9,3.1,2.1,3.1,3.7l-0.2,1
			c-0.5,2.1-1.7,3.1-3.7,3.1l-1-0.2c-4.8-1-10.2-2-16.2-2.9c-7.9,34.6-15.4,57.3-22.6,68.1c-1.8,2.3-3.6,3.5-5.4,3.5
			c-0.4,0-0.8-0.1-1.4-0.2c-1.9-0.6-3.5-3.5-4.8-8.7v-0.4c0-1,0.5-1.7,1.5-1.9h0.4c1,0,1.7,0.5,1.9,1.5c0.4,2.2,0.9,3.8,1.5,4.8
			c0.1,0.5,0.4,0.8,0.8,1l0.8-0.4l1.5-1.5c6.9-10.7,14.1-32.8,21.6-66.4c-16.1-2.1-34-3.1-53.7-3.1c-6.9,0-14,0.1-21.2,0.4
			c-3.9,11.1-7.5,21.8-10.8,32l28.9-3.9h0.4c0.8,0,1.4,0.5,1.7,1.5v0.4c0,0.9-0.6,1.5-1.7,1.9l-30.7,4.1
			c-7.7,24.8-12.6,43.1-14.7,54.8C124.9,254.7,123.6,255.7,121.7,255.7z M61.5,199.7c10.8,0,22.8-0.6,35.9-1.6
			c13.1-1.1,25.5-2.3,37.1-3.6c3.5-10.4,7.3-21.3,11.6-32.6c-8.6,0.5-17.1,1.2-25.5,2.1c-16.9,1.9-32.4,4.8-46.5,8.5
			c-14.2,3.7-25.6,8.6-34.4,14.5c-3.3,2.3-5.6,4.3-6.8,6c-0.5,0.6-0.8,1.2-0.8,1.5v0.4c0.3,0.6,0.8,1.2,1.5,1.5
			c1.3,0.6,2.9,1.2,4.8,1.5c5.2,1.2,11.7,1.7,19.5,1.7L61.5,199.7L61.5,199.7z M228.8,157.2c3.3-15.3,6.1-30.8,8.3-46.5
			c2.8-19.2,4.2-36,4.2-50.4c0-9.1-0.7-16.8-2.1-23c-0.8-3.5-1.8-6.2-3.1-8.1s-3-2.9-5.2-2.9h-0.6c-5.4,0.8-11.2,4.7-17.4,11.8
			c-9.4,10.8-18.8,25.9-28.2,45.4c-11.1,22.7-21.2,46.9-30.5,72.8c11.2-0.6,22.1-1,32.6-1C202.3,155.3,216.2,156,228.8,157.2z"/>
		<path class="st0" d="M260.5,204.5l-0.8-0.2c-1-0.5-1.5-1.2-1.5-1.9l7-25.5c2.2-7.5,4.4-15.8,6.8-24.9c8-29.7,15-54.6,21-74.5
			c2.2-6.4,3.8-10.7,4.8-12.7c0.6-1.2,1.4-1.9,2.2-2.3s1.6-0.6,2.2-0.6l1.7,0.4c1.4,0.9,2.1,2.1,2.1,3.5c0,0.5-0.1,1.1-0.4,1.7
			c-0.4,0.8-0.9,1.3-1.5,1.5c-1,1.9-2.5,5.5-4.4,10.8c-6.8,19.7-14.6,44.2-23.4,73.5l-7.1,24.7l-2.1,8.1
			c4.9-8.1,10.5-15.7,16.8-22.8c6.3-6.7,12.2-10,17.8-10h0.8c4.6,0.6,7.1,3.1,7.3,7.3v1.4c0,4.6-2.2,10.4-6.6,17.4
			c-3.5,5.1-7.6,9.7-12.4,13.7c5.5-1,11.6-2.6,18.1-4.6c12.4-3.6,24.6-9.6,36.7-18.1l1-0.4c0.6,0,1.2,0.3,1.7,1
			c0.3,0.4,0.4,0.8,0.4,1.2c0,0.5-0.3,1-0.8,1.5c-12.4,8.9-24.9,15.2-37.6,18.9c-12.4,3.7-22.5,6.1-30.5,6.9
			c-2.6,0.9-5.1,1.4-7.7,1.4c-1.2,0-2.4-0.1-3.7-0.4c-1.3-0.5-1.9-1.4-1.9-2.5c0.4-1.4,1.2-2.1,2.3-2.1l9.6-0.8
			c6.3-2.7,11.9-7.1,16.8-13.1c5.8-7.1,9-13.4,9.6-19.1v-1c0-1.2-0.3-2.1-0.8-2.7c-0.5-0.5-1.3-0.8-2.3-0.8h-0.6
			c-2.3,0-4.8,0.9-7.3,2.7c-3.6,2.6-7.1,6-10.6,10.2c-5.8,7.2-12.7,17.9-20.9,32C261.9,204.2,261.3,204.5,260.5,204.5z"/>
		<path class="st0" d="M375.9,219.2h-0.8c-3.9,0-6.3-2.4-7.3-7.3c-0.4-1.8-0.6-3.9-0.6-6.2c0-4.5,0.6-9.9,1.9-16.2
			c1.8-9.3,4.5-19.5,8.1-30.7l-3.5,6.8l0.2,0.8c0,1.7-0.8,2.9-2.5,3.7c-4.6,8.6-8.8,15.6-12.5,20.9c-4.4,6.1-8,10.1-10.8,12.2
			c-1.9,1.3-3.5,2-4.8,2.1l-1.2,0.2c-2.1,0-3.7-1.2-5-3.5c-0.6-1.3-1-3.1-1-5.4c0-1.5,0.1-3.3,0.4-5.2c1.2-6.7,3.6-13,7.4-19
			c3.8-6,7.9-10.4,12.3-13.2c2.7-1.5,5.2-2.3,7.5-2.3c1,0,2,0.1,2.9,0.4c1.7,0.5,3.3,1.7,4.8,3.5c5.5-10.2,11.5-22.8,18-37.8
			c5.3-14.3,12-31.3,20.3-51c0.6-0.8,1.2-1.2,1.7-1.2l0.8,0.2c0.9,0.5,1.4,1.2,1.4,1.9l-0.2,0.6c-5.4,14.7-10.6,27.9-15.6,39.6
			c-2.2,5.8-4.4,11.9-6.6,18.3c-7.9,21.6-13.8,41.4-18,59.3c-1.3,6.3-1.9,11.6-1.9,15.8c0,1.7,0.1,3.3,0.4,4.8
			c0.5,2.7,1.7,4.1,3.7,4.1h0.4c2.6-0.1,6-2,10.4-5.6c8.2-6.3,20.3-19.2,36.1-38.6c0.5-0.5,1-0.8,1.4-0.8c0.6,0,1,0.2,1.2,0.6
			c0.5,0.3,0.8,0.7,0.8,1.4c0,0.4-0.2,0.8-0.6,1.2c-15.8,19.8-27.9,32.9-36.3,39.4C383.3,216.9,379,219.1,375.9,219.2z M342.5,199.3
			c0.3,0,0.5-0.1,0.8-0.2c1-0.4,2.1-1.1,3.3-2.1c4.9-4.1,11.6-13.5,20.3-28.2c-0.4-0.5-0.6-1-0.6-1.4c-0.4-1.8-1.1-2.9-2.1-3.3
			l-0.8-0.2c-0.9,0-2,0.4-3.3,1.2c-2.3,1.4-4.6,3.4-7,6c-5.3,6.1-8.8,13.1-10.6,21c-0.3,1.7-0.4,3.2-0.4,4.6v1.4l0.2,1.2
			L342.5,199.3L342.5,199.3z"/>
		<path class="st0" d="M426.1,200.9c-0.5,0-1.1-0.1-1.7-0.2c-1.7-0.6-3-2.1-4-4.4c-0.9-2.1-1.4-4.8-1.4-8.3c0-3,0.5-6.6,1.4-10.8
			c3.2-13.6,6.8-21.3,10.6-23c1-0.6,2.1-1,3.3-1c1.5,0,3,0.7,4.4,2.1c2.1,2.2,3.3,6.3,3.7,12.4c0,0.8-0.2,1.4-0.6,1.9l0.2,0.6
			c2.1,3.2,4.4,5.1,7.1,5.6h1.2c3.5,0,8.1-1.8,13.9-5.4l1.2-0.4c0.6,0,1.2,0.3,1.7,1l0.2,1.2c0,0.5-0.3,1.1-0.8,1.7
			c-3.6,2.3-6.7,3.9-9.4,4.7c-2.6,0.8-5,1.2-7,1.2h-1.4c-3.4-0.5-5.9-1.7-7.5-3.7c-2.3,10.7-5.2,17.8-8.7,21.2
			C430.2,199.7,428,200.9,426.1,200.9z M426.1,196.8c1.2,0,2.2-0.7,3.3-2.1c3.7-3.6,6.6-11.6,8.5-24.1c-1.2-0.6-1.7-1.6-1.7-2.9
			c0-3.5-0.4-6.1-1.2-7.9c-0.1-0.8-0.5-1.2-1.2-1.2l-0.4,0.2c-3,1.4-6,7.8-9.1,19.1c-1,4.2-1.5,7.7-1.5,10.4c0,1.7,0.2,3.1,0.6,4.4
			c0.4,2.2,1.2,3.5,2.3,4.1L426.1,196.8L426.1,196.8z"/>
		<path class="st0" d="M464.9,202.4h-0.4c-4.4,0-6.6-3.1-6.8-9.3v-0.6c0.6-6.7,4-18.5,10.2-35.3c0.9-1.5,2.1-2.3,3.7-2.3l1.5,0.4
			c1.5,0.8,2.3,1.9,2.3,3.5l-0.4,1.5c-4.5,10.4-7.7,18.5-9.5,24.3c-1,3.4-1.5,6.3-1.5,8.9v0.8c0,0.8,0.1,1.4,0.2,1.7
			c0,0.1,0.1,0.3,0.4,0.4c1.4,0,2.8-0.7,4.2-2.1c3.2-2.7,6.4-6.4,9.5-11c4.4-6.6,9.7-16,16-28.4c0.6-1,1.4-1.5,2.3-1.5l1,0.2
			c1.2,0.5,1.7,1.3,1.7,2.3l-0.2,0.8c-3,11.2-4.8,19.9-5.6,26.2l-0.2,3.7c0,2.4,0.3,4.6,0.8,6.4c0.4,1.7,1.3,2.7,2.7,3.1h0.8
			c4.5,0,9.3-2.2,14.5-6.6c5.3-4.1,11.8-10.4,19.5-18.7c0.5-0.5,1-0.8,1.5-0.8c0.4,0,0.8,0.2,1.3,0.6c0.5,0.4,0.8,0.9,0.8,1.5
			c0,0.4-0.2,0.8-0.6,1.4c-7.8,8.8-14.5,15.3-19.9,19.7c-6.3,5-12.1,7.5-17.4,7.5h-1c-2.7-0.3-4.7-1.7-6-4.2
			c-1.2-2.3-1.8-5.3-1.9-9.1c0-3.9,0.4-8,1.2-12.6c-3.1,5.7-6.5,11-10.2,16c-3,4-5.8,7-8.5,9.1C468.9,201.5,466.8,202.3,464.9,202.4
			z"/>
		<path class="st0" d="M543.5,214.2c-3.9,0-7.1-1.7-9.8-5.1c-2.6-3.4-4-9.8-4.2-19c0-11.3,1.3-25.2,4-41.5s5.8-31.8,9.2-46.4
			s6.4-25.4,9-32.5c1.4-4.1,2.7-6.6,3.8-7.4s2.1-1.2,3-1.2c2.7-0.1,4,1.1,4,3.7c0,1.3-0.5,2.4-1.5,3.3l0.2,0.4
			c0,0.5-0.4,1.3-1.2,2.5c-0.8,1.2-1.6,2.5-2.2,4.1c-5.2,14.3-10.4,33.4-15.8,57.3c-5.4,23.9-8.1,43.6-8.1,58.9
			c0,7.5,1,12.5,2.9,15.1s4.3,4,7.1,4c3.9,0,8.1-1.9,12.8-5.6c4.7-3.7,9.2-8,13.5-12.9s8-9.4,11-13.4c3-4.1,4.9-6.6,5.5-7.6
			c1.7-16.6,4.6-34.4,8.7-53.4S603,84.4,606,75.8c1.3-3.6,2.4-5.8,3.3-6.6c1.3-1,2.4-1.5,3.3-1.5c2.7,0,4,1.3,4,4.1
			c0.1,1-0.4,2-1.5,2.9v0.2c0,0.5-0.4,1.3-1.1,2.3c-0.7,1-1.3,2.2-1.8,3.7c-4.4,12-9.1,28.9-14.3,51c-5.2,22-7.7,40.1-7.7,54.2
			c0,6.8,0.9,11.5,2.7,14c1.8,2.5,4,3.8,6.8,3.8c3.7,0,7.7-1.9,12-5.6c6.6-5.5,14.9-14.9,25.1-28c0.4-0.5,0.8-0.8,1.2-0.8
			c1.2,0,1.7,0.6,1.7,1.7l-0.2,0.8c-5.3,7.2-9.9,13.2-14,17.9c-4,4.7-8.4,8.9-13,12.4c-4.6,3.6-9,5.4-13.1,5.4c-2.1,0-4-0.6-6-1.6
			s-3.5-3.1-4.8-5.9c-1.3-2.8-2.1-6.9-2.3-12.4l0.2-11c-3,4.2-6.8,9.3-11.7,15.1s-10,11-15.5,15.5
			C553.6,211.9,548.4,214.2,543.5,214.2z"/>
		<path class="st0" d="M671.5,202.2h-1c-3.1-0.4-5.3-1.5-6.6-3.4c-1.3-1.9-1.9-4.3-1.9-7.2v-0.8c0.5-4.6,1.8-9.6,3.9-14.9
			c-0.5,0.3-1.1,0.4-1.7,0.4c-5.3,5.4-10.8,10.6-16.6,15.7s-10.4,8.2-13.9,9.4l-1.9,0.4c-0.9,0-1.7-0.3-2.3-0.8
			c-1.2-0.5-1.9-1.8-2.1-3.9v-0.8c0-1.9,0.5-4.6,1.5-8.1c2.7-9,6-16.3,9.9-22c3.9-5.7,7.8-9.5,11.5-11.6c2.4-1.3,4.7-1.9,6.8-1.9
			c2.6,0,4.8,0.8,6.6,2.5c2.4,2.1,4,5.8,4.6,11.2l4.6-5.2c0.5-0.4,1-0.6,1.3-0.6c0.6,0,1.1,0.1,1.3,0.4c0.5,0.4,0.8,0.9,0.8,1.5
			l-0.2,1c-5,10-8.2,17.8-9.5,23.4c-0.4,1.9-0.6,3.7-0.6,5.2c0,1.7,0.3,3.1,1.1,4.1s2,1.7,3.8,1.8h1c2.7,0,5.9-0.7,9.6-2.1
			c3.7-1.4,7.4-3.1,11.3-5.2c7.8-4.5,17.9-11.2,30.1-20.1c0.5-0.3,1-0.4,1.3-0.4c0.6,0,1.2,0.3,1.5,0.8c0.4,0.4,0.6,0.8,0.6,1.2
			c0,0.5-0.3,1.1-1,1.7c-12.5,9.1-22.7,15.9-30.7,20.3C685.3,199.6,677.6,202.2,671.5,202.2z M631.5,198l1.2-0.2
			c3.3-1,7.7-3.9,13-8.7c5.3-4.8,10.5-9.7,15.3-14.9c-0.4-0.6-0.6-1.4-0.6-2.1l0.4-4.4c0-1.9-0.2-3.5-0.6-4.8
			c-0.5-1.8-1.3-3-2.3-3.5l-1.5-0.4c-1.2,0-2.3,0.3-3.5,1c-7.5,3.6-14.2,13.4-20.3,29.5c-1,3-1.5,5.2-1.5,6.8v0.8
			C631.1,197.4,631.2,197.7,631.5,198z"/>
		<path class="st0" d="M716,204.2l-0.8-0.2c-1-0.6-1.5-1.4-1.5-2.3l14.7-55.6c5.3-19.9,10.3-38.2,15.1-54.8
			c3.6-12,6.3-20.2,8.1-24.7c1.5-2.8,2.8-4.2,3.7-4.2c0.5-0.1,1-0.2,1.3-0.2c1.5,0,2.8,0.8,3.7,2.3c0.1,0.4,0.2,0.9,0.2,1.5
			c0,0.9-0.4,1.8-1.2,2.7v0.2c0,0.5-0.3,1.2-0.9,1.9s-1.1,1.7-1.5,2.7c-5,13.4-11.5,33.5-19.3,60.4c-2.1,6.9-4,13.8-5.8,20.5
			c-3.9,13.8-7,25.3-9.5,34.6c5.2-7.1,11-14,17.6-20.6c3.6-3.5,7-6.1,10-7.9c2.4-1.2,4.5-1.7,6.2-1.7c3.3,0.4,5,2.8,5,7.3
			c0,2.1-0.2,4.4-0.7,7.1s-0.7,5.4-0.9,8.1l-0.2,2.3c0,2.3,0.5,4.1,1.5,5.4c0.6,0.6,1.5,1,2.7,1s2.6-0.3,4.2-0.8
			c6.2-1.7,16.7-7.9,31.7-18.7l1.2-0.4c0.6,0,1.2,0.3,1.7,1c0.1,0.4,0.2,0.8,0.2,1.2c0,0.5-0.2,1-0.6,1.5
			c-15.6,11.6-26.6,18.1-33,19.7c-2.1,0.6-3.9,1-5.4,1c-2.7,0-4.6-0.7-5.8-2.1c-1.7-1.8-2.6-4.3-2.9-7.5l-0.2-2.1
			c0-4.2,0.5-8.8,1.5-13.7v-4.1l-0.2-1c0-0.3-0.1-0.4-0.2-0.4c-1.5,0-3.2,0.6-5,1.9c-3.6,2.4-7.5,5.9-11.6,10.4
			c-5.5,6.3-12.5,15.4-20.8,27.2C717.9,203.8,717.1,204.2,716,204.2z"/>
	</g>
	<g>
		<path class="st0" d="M501.9,316.8c-3.6,0-6.9-0.5-9.9-1.6c-3-1.1-5.6-2.8-7.8-5.2c-2.8-3.3-4.2-6.8-4.2-10.4c0-3.2,1-6.4,3-9.6
			c4.5-7,12.4-13.3,23.8-19.1c16.2-8.3,35.4-13,57.6-14.3c-2.2-2.9-5.3-5.5-9.2-7.6c-5.2-2.9-10.5-5.6-16.1-8.1
			c-5.6-2.5-10.2-5.3-13.9-8.3c-3.1-2.6-4.9-5.7-5.3-9.1v-1c0-3.7,2-8.1,6-13.3c6.3-7.4,12.5-13.1,18.4-17.2c6-4,11.2-6.4,15.8-7.1
			c1.1-0.1,2.1-0.2,3-0.2c3.9,0,6.9,1.4,8.9,4.1c1.5,2,2.2,4.8,2.2,8.3c0,2.7-0.5,5.9-1.5,9.6c-0.4,1.1-1.2,1.6-2.2,1.6l-0.7-0.1
			c-1-0.5-1.5-1.2-1.5-2.2l0.1-0.5c1-3.4,1.5-6.3,1.5-8.7c0-2.3-0.5-4.2-1.4-5.6c-1.2-1.7-3.1-2.6-5.7-2.6l-2.2,0.2
			c-4.3,0.6-9.2,2.8-14.8,6.5c-5.6,3.8-11.4,9.1-17.4,16c-3.6,4.2-5.3,7.9-5.3,10.9v0.9c0.3,2.7,1.7,5.1,4.1,7.2
			c3.6,3.1,8.1,5.8,13.6,8.3c5.5,2.5,10.7,5.2,15.8,8.1c4.7,2.8,8.3,6,10.9,9.8h2.3c3.5,0,7.1,0.1,10.8,0.4c0.6,0,0.9,0.4,1,1.2
			c-0.2,0.6-0.5,1-1.2,1c-3.9-0.3-7.8-0.4-11.8-0.4c0.8,1.8,1.2,3.8,1.2,5.9v0.8c-0.5,6.8-4,13.8-10.5,21.1
			c-6.5,7.3-14.4,13.8-23.8,19.3c-10.5,6.2-20.7,9.9-30.6,10.9L501.9,316.8z M501.9,314.3l2.8-0.1c9.6-1,19.4-4.5,29.5-10.6
			c9-5.2,16.6-11.3,22.9-18.2c6.2-6.9,9.6-13.6,10.1-20.1v-0.6c0-2.1-0.5-4-1.4-5.8c-22.4,1.1-41.7,5.8-58,14.2
			c-10.8,5.5-18.4,11.6-22.8,18.2c-1.7,2.8-2.6,5.6-2.6,8.4c0,3,1.2,6,3.6,8.7c2,2.1,4.3,3.6,7,4.6
			C495.8,313.8,498.7,314.3,501.9,314.3z"/>
		<path class="st0" d="M586.3,288.9l-0.4-0.1c-0.6-0.4-0.9-0.8-0.9-1.3l8.3-31.4c3-11.3,5.8-21.6,8.5-31c2-6.8,3.6-11.4,4.6-13.9
			c0.9-1.6,1.6-2.4,2.1-2.4c0.3-0.1,0.5-0.1,0.8-0.1c0.9,0,1.6,0.4,2.1,1.3c0.1,0.2,0.1,0.5,0.1,0.9c0,0.5-0.2,1-0.7,1.5v0.1
			c0,0.3-0.2,0.6-0.5,1.1s-0.6,0.9-0.8,1.5c-2.8,7.6-6.5,18.9-10.9,34.1c-1.2,3.9-2.2,7.8-3.3,11.6c-2.2,7.8-4,14.3-5.3,19.5
			c2.9-4,6.2-7.9,9.9-11.7c2-2,3.9-3.5,5.7-4.5c1.4-0.6,2.5-1,3.5-1c1.9,0.2,2.8,1.6,2.8,4.1c0,1.2-0.1,2.5-0.4,4
			c-0.3,1.5-0.4,3-0.5,4.6l-0.1,1.3c0,1.3,0.3,2.3,0.9,3c0.4,0.4,0.9,0.5,1.5,0.5c0.7,0,1.5-0.1,2.4-0.4c3.5-0.9,9.4-4.5,17.9-10.6
			l0.7-0.2c0.4,0,0.7,0.2,1,0.5c0.1,0.2,0.1,0.4,0.1,0.6c0,0.3-0.1,0.6-0.3,0.9c-8.8,6.5-15,10.2-18.6,11.1c-1.2,0.4-2.2,0.5-3,0.5
			c-1.5,0-2.6-0.4-3.3-1.2c-1-1-1.5-2.4-1.6-4.2l-0.1-1.2c0-2.4,0.3-5,0.9-7.7v-2.3l-0.1-0.5c0-0.1,0-0.2-0.1-0.2
			c-0.9,0-1.8,0.4-2.8,1.1c-2,1.4-4.2,3.3-6.5,5.9c-3.1,3.6-7,8.7-11.8,15.4C587.4,288.7,586.9,288.9,586.3,288.9z"/>
		<path class="st0" d="M653.2,287.8h-0.5c-1.7-0.2-3-0.9-3.7-1.9c-0.7-1-1.1-2.4-1.1-4.1v-0.4c0.3-2.6,1-5.4,2.2-8.4
			c-0.3,0.1-0.6,0.2-1,0.2c-3,3-6.1,6-9.4,8.9s-5.9,4.6-7.8,5.3l-1.1,0.2c-0.5,0-0.9-0.1-1.3-0.4c-0.7-0.3-1-1-1.2-2.2v-0.4
			c0-1.1,0.3-2.6,0.9-4.6c1.5-5.1,3.4-9.2,5.6-12.4c2.2-3.2,4.4-5.4,6.5-6.5c1.4-0.7,2.7-1.1,3.8-1.1c1.5,0,2.7,0.5,3.7,1.4
			c1.4,1.2,2.2,3.3,2.6,6.3l2.6-2.9c0.3-0.2,0.5-0.3,0.8-0.3c0.4,0,0.6,0.1,0.8,0.2c0.3,0.2,0.4,0.5,0.4,0.9l-0.1,0.5
			c-2.8,5.7-4.6,10.1-5.3,13.2c-0.2,1.1-0.3,2.1-0.3,2.9c0,1,0.2,1.7,0.6,2.3c0.4,0.6,1.1,1,2.1,1h0.5c1.5,0,3.3-0.4,5.4-1.2
			c2.1-0.8,4.2-1.8,6.4-2.9c4.4-2.5,10.1-6.3,17-11.3c0.3-0.1,0.5-0.2,0.8-0.2c0.4,0,0.7,0.1,0.9,0.4c0.2,0.2,0.3,0.4,0.3,0.6
			c0,0.3-0.2,0.6-0.5,1c-7,5.2-12.8,9-17.3,11.4C661,286.3,656.6,287.8,653.2,287.8z M630.6,285.4l0.7-0.1c1.9-0.6,4.3-2.2,7.4-4.9
			c3-2.7,5.9-5.5,8.7-8.4c-0.2-0.4-0.3-0.8-0.3-1.2l0.2-2.5c0-1.1-0.1-2-0.3-2.7c-0.3-1-0.7-1.7-1.3-2l-0.9-0.2
			c-0.7,0-1.3,0.2-2,0.5c-4.2,2-8,7.6-11.4,16.7c-0.6,1.7-0.9,2.9-0.9,3.8v0.4C630.4,285.1,630.5,285.2,630.6,285.4z"/>
		<path class="st0" d="M697.4,290h-0.7c-2.4,0-3.8-1.8-4.2-5.5v-4.2c-0.8,1.3-1.6,2.5-2.5,3.7c-1.8,2.2-3.8,3.6-5.9,4h-0.4
			c-1.7,0-2.9-1-3.5-2.9c-0.2-0.8-0.3-1.8-0.3-2.9c0-1.3,0.1-2.8,0.3-4.5c1.1-5.7,2.4-10,4-12.9c0.7-0.9,1.2-1.4,1.5-1.6
			c0.4-0.2,0.9-0.3,1.3-0.3l0.5,0.1c1.2,0.4,1.7,1,1.7,2.1l-0.1,0.5c-0.2,0.6-0.5,1.1-1.1,1.4c0,0.2-0.2,0.5-0.7,0.8
			c-0.9,1.7-1.7,4.1-2.6,7.1c-0.9,3-1.3,5.6-1.3,7.7v0.5c0,0.4,0.1,0.8,0.2,1.1v0.2c1.7-0.4,3.3-1.8,4.8-4c1.6-2.3,3.4-5.7,5.5-10.1
			c0.4-0.6,0.9-1,1.4-1l0.4,0.1c0.7,0.3,1.1,0.7,1.1,1.3l-0.1,0.4c-1,5-1.5,8.8-1.5,11.3c0,1.5,0.2,2.9,0.7,4
			c0.1,0.4,0.4,0.5,0.9,0.5h0.1c0.4,0,0.9-0.3,1.4-1c1.2-1.2,2.3-2.8,3.3-4.9c3.1-6.5,5.2-12.3,6.2-17.2l-0.2-0.8v-0.4
			c0-1,0.1-1.6,0.4-1.9c0.4-0.4,0.8-0.5,1.2-0.5h0.2c0.6,0,1,0.5,1.2,1.6c0,0.4-0.1,1.1-0.2,2.1l0.1,0.1c0.3,1.5,0.9,3,2,4.5
			s2.5,2.8,4.5,3.6c1.1,0.4,2.3,0.6,3.6,0.6c2.6,0,5.8-1,9.7-3.2c0.2-0.1,0.4-0.1,0.7-0.1c0.4,0,0.7,0.2,1,0.5
			c0.1,0.1,0.2,0.3,0.2,0.5c0,0.4-0.2,0.8-0.7,1c-4.4,2.5-8.1,3.7-11.1,3.7c-1.6,0-3-0.2-4.2-0.8c-3.1-1.5-5.3-3.5-6.7-6.2
			c-0.7,2.5-1.6,5.3-2.7,8.3c-1.5,3.9-3.2,7.2-5,9.8C700.3,288.6,698.8,289.7,697.4,290z"/>
		<path class="st0" d="M750.4,287.8h-0.5c-1.7-0.2-3-0.9-3.7-1.9c-0.7-1-1.1-2.4-1.1-4.1v-0.4c0.3-2.6,1-5.4,2.2-8.4
			c-0.3,0.1-0.6,0.2-1,0.2c-3,3-6.1,6-9.4,8.9s-5.9,4.6-7.8,5.3l-1.1,0.2c-0.5,0-0.9-0.1-1.3-0.4c-0.7-0.3-1-1-1.2-2.2v-0.4
			c0-1.1,0.3-2.6,0.9-4.6c1.5-5.1,3.4-9.2,5.6-12.4c2.2-3.2,4.4-5.4,6.5-6.5c1.4-0.7,2.7-1.1,3.8-1.1c1.5,0,2.7,0.5,3.7,1.4
			c1.4,1.2,2.2,3.3,2.6,6.3l2.6-2.9c0.3-0.2,0.5-0.3,0.8-0.3c0.4,0,0.6,0.1,0.8,0.2c0.3,0.2,0.4,0.5,0.4,0.9L753,266
			c-2.8,5.7-4.6,10.1-5.3,13.2c-0.2,1.1-0.3,2.1-0.3,2.9c0,1,0.2,1.7,0.6,2.3c0.4,0.6,1.1,1,2.1,1h0.5c1.5,0,3.3-0.4,5.4-1.2
			c2.1-0.8,4.2-1.8,6.4-2.9c4.4-2.5,10.1-6.3,17-11.3c0.3-0.1,0.5-0.2,0.8-0.2c0.4,0,0.7,0.1,0.9,0.4c0.2,0.2,0.3,0.4,0.3,0.6
			c0,0.3-0.2,0.6-0.5,1c-7,5.2-12.8,9-17.3,11.4C758.2,286.3,753.8,287.8,750.4,287.8z M727.8,285.4l0.7-0.1
			c1.9-0.6,4.3-2.2,7.4-4.9c3-2.7,5.9-5.5,8.7-8.4c-0.2-0.4-0.3-0.8-0.3-1.2l0.2-2.5c0-1.1-0.1-2-0.3-2.7c-0.3-1-0.7-1.7-1.3-2
			l-0.9-0.2c-0.7,0-1.3,0.2-2,0.5c-4.2,2-8,7.6-11.4,16.7c-0.6,1.7-0.9,2.9-0.9,3.8v0.4C727.6,285.1,727.7,285.2,727.8,285.4z"/>
		<path class="st0" d="M786.2,290.1L785,290c-1.6-0.4-2.4-1.7-2.4-3.7l0.1-1.3c1-4.4,2.5-8.5,4.6-12.4l-1.7,0.1
			c-1.4,0-2.6-0.2-3.7-0.5l-0.7,0.1c-0.5,0-1-0.2-1.6-0.6c-0.4-0.4-0.5-0.9-0.5-1.4v-0.3c-0.4-0.8-0.7-1.6-0.7-2.3v-0.6
			c0-1.7,0.4-3.3,1.3-5s1.8-3,2.8-3.9c1.1-0.9,2-1.4,2.6-1.4l0.8,0.2c1.3,0.6,2,1.7,2,3.5c0,0.5-0.1,1.1-0.2,1.7
			c-0.7,2.8-1.9,5.5-3.7,8.1l1.1,0.1c1.2,0,2.7-0.2,4.2-0.6h0.3c0.4,0,0.8,0.1,1.1,0.4c0.2,0.3,0.3,0.5,0.3,0.8s-0.1,0.4-0.2,0.6
			c-2,4.4-3.4,8-4.2,10.6c-0.4,1.5-0.7,2.9-0.9,4.1v0.6c0.1,0.1,0.1,0.2,0.1,0.3l0.7,0.1c0.9,0,1.9-0.3,3.2-1c1.9-0.9,3.9-2.1,6-3.7
			c3.6-2.8,8.1-6.9,13.6-12.4c0.4-0.3,0.7-0.4,1-0.4c0.2,0,0.4,0.1,0.7,0.3c0.3,0.2,0.4,0.5,0.4,0.9c0,0.3-0.1,0.5-0.3,0.8
			c-6.7,7.1-12.1,12.2-16.1,15.1C791.5,289,788.6,290.1,786.2,290.1z M780.7,267.5c1.2-1.2,2.2-2.5,3.2-4c0.8-1.2,1.3-2.4,1.4-3.4
			v-0.5c0-0.4-0.1-0.6-0.2-0.6c0,0.1-0.2,0.3-0.5,0.4c-0.3,0.1-0.6,0.3-0.8,0.5c-1.4,1.5-2.4,3.3-2.9,5.7l-0.1,1.2V267.5z"/>
	</g>
</g>
</svg>
